<svg xmlns="http://www.w3.org/2000/svg" viewBox="0 0 512 512">
  <defs>
    <linearGradient id="bg" x1="0%" y1="0%" x2="100%" y2="100%">
      <stop offset="0%" style="stop-color:#0e4a2e"/>
      <stop offset="100%" style="stop-color:#072818"/>
    </linearGradient>
    <linearGradient id="gold" x1="0%" y1="0%" x2="100%" y2="100%">
      <stop offset="0%" style="stop-color:#D4AF37"/>
      <stop offset="100%" style="stop-color:#F5D670"/>
    </linearGradient>
    <linearGradient id="goldBorder" x1="0%" y1="0%" x2="100%" y2="100%">
      <stop offset="0%" style="stop-color:#D4AF37;stop-opacity:0.8"/>
      <stop offset="100%" style="stop-color:#F5D670;stop-opacity:0.4"/>
    </linearGradient>
  </defs>
  <!-- Background rounded square -->
  <rect x="16" y="16" width="480" height="480" rx="96" ry="96" fill="url(#bg)" stroke="url(#goldBorder)" stroke-width="8"/>
  <!-- Inner glow -->
  <rect x="40" y="40" width="432" height="432" rx="80" ry="80" fill="none" stroke="url(#goldBorder)" stroke-width="2" opacity="0.3"/>
  <!-- Spade symbol -->
  <path d="M256 88 C256 88, 128 200, 128 280 C128 336, 172 368, 216 352 C208 388, 192 412, 168 424 L344 424 C320 412, 304 388, 296 352 C340 368, 384 336, 384 280 C384 200, 256 88, 256 88Z" fill="url(#gold)"/>
</svg>
